<svg version="1.1" id="Layer_1" xmlns="http://www.w3.org/2000/svg" xmlns:xlink="http://www.w3.org/1999/xlink" x="0px" y="0px"
	 width="100%" viewBox="0 0 496 496" enable-background="new 0 0 496 496" xml:space="preserve">
<path fill="#000000" opacity="1.000000" stroke="none" 
	d="
M129.266632,287.741211 
	C126.427299,286.539001 128.236069,284.693359 128.790314,283.371307 
	C130.517212,279.252136 131.207962,275.106506 129.882462,270.817230 
	C128.680344,266.927246 132.361221,266.300140 134.057053,264.379974 
	C131.924057,258.948975 130.190231,253.462311 127.662788,248.369507 
	C124.479034,241.954269 121.186111,235.373260 113.473457,232.990662 
	C112.261452,232.616241 111.880081,231.390259 111.386459,230.322327 
	C108.153969,223.329132 107.005020,215.737564 105.158882,208.356323 
	C104.410233,205.363083 108.896835,201.986191 113.661469,201.602646 
	C119.271904,201.151016 123.182259,203.843353 123.604980,208.931091 
	C123.827736,211.612137 124.431572,213.913696 127.364983,213.366165 
	C130.065704,212.862091 132.721710,211.390701 132.907974,207.865341 
	C132.998032,206.160782 131.722168,204.357681 133.281723,202.369736 
	C136.166840,204.422089 137.282883,207.508911 138.114868,210.286530 
	C140.181213,217.185074 143.229919,223.657059 145.969513,230.260239 
	C148.932785,237.402588 154.928101,238.348907 160.581070,232.616867 
	C168.946350,224.134552 178.253220,216.832153 188.592941,210.990067 
	C217.197922,194.827820 247.863571,189.344025 280.336212,193.822037 
	C230.931900,181.112564 186.361908,191.477814 146.028503,222.436646 
	C146.202698,216.697845 149.311111,213.038223 166.495743,198.014465 
	C163.077286,197.993362 161.079834,198.549988 156.212021,201.263702 
	C152.935822,203.090134 149.769547,205.113770 146.554092,207.049194 
	C146.193146,206.659607 145.832184,206.270035 145.471237,205.880447 
	C167.610077,180.876984 189.748917,155.873505 212.076004,130.657440 
	C223.083862,142.089767 233.450134,152.855774 243.816406,163.621765 
	C244.280334,163.201111 244.744263,162.780441 245.208176,162.359787 
	C241.399963,156.905716 237.775864,151.309891 233.721741,146.045197 
	C230.800690,142.251953 232.001175,140.212067 235.739288,138.339172 
	C241.209732,135.598328 246.296631,135.972733 250.652573,139.970551 
	C254.576309,135.934464 258.677094,132.024719 262.404266,127.786423 
	C265.482635,124.285927 267.717987,124.639824 270.895630,127.858025 
	C289.512970,146.713043 308.309692,165.390961 327.058014,184.116531 
	C328.580353,185.637024 330.193329,187.066788 331.744690,188.520447 
	C333.219421,187.778015 332.784607,186.443329 332.433380,185.861984 
	C326.797760,176.534012 331.152069,168.085114 334.979919,159.810547 
	C336.020538,157.560974 335.803192,155.749344 335.705078,153.662003 
	C335.630127,152.067337 334.798279,150.138779 336.763611,149.183289 
	C338.660522,148.261078 340.931427,148.203964 342.338470,149.857773 
	C344.122345,151.954468 346.251801,152.492950 348.778656,153.014420 
	C352.639221,153.811142 357.118195,161.934814 356.587708,165.880264 
	C355.637360,172.947998 355.015686,180.043213 356.702057,187.116653 
	C356.993774,188.340179 357.616547,189.712067 355.765625,190.818939 
	C352.291382,188.706955 354.905518,184.186356 352.650970,181.658066 
	C346.482880,182.648285 351.897491,187.828049 349.402283,190.062225 
	C346.698975,189.176682 348.288544,186.854767 347.494690,185.160828 
	C346.473206,190.250214 348.747772,194.958069 348.312439,199.811401 
	C347.911530,204.280350 347.839203,207.794357 341.478760,209.001465 
	C330.915863,211.006119 326.517365,218.438721 330.916290,228.136505 
	C332.627411,231.908875 333.650543,236.002823 333.323181,240.275269 
	C332.998383,244.513947 330.481598,246.534836 326.304565,245.855286 
	C322.780273,245.281891 319.723907,243.707062 316.794312,241.689621 
	C310.069672,237.058731 303.319244,232.422638 295.261932,230.306824 
	C288.762299,228.600021 284.791901,231.971146 285.446228,238.643341 
	C285.591705,240.126709 286.107025,241.578278 286.206665,243.060959 
	C286.698669,250.383072 282.807220,253.536224 275.681335,251.723740 
	C267.266205,249.583344 260.263550,244.729950 253.191910,240.030655 
	C248.877014,237.163300 244.558578,234.351898 239.499603,232.942474 
	C234.373703,231.514359 231.156433,233.202896 229.300690,238.133392 
	C227.959778,241.696060 228.268372,245.366119 228.429474,249.008621 
	C228.600632,252.879028 228.320129,256.662354 227.115280,260.347015 
	C224.878174,267.188690 219.924026,269.353577 213.431824,266.267548 
	C208.862961,264.095764 205.133789,260.750122 201.376190,257.438019 
	C195.944870,252.650635 189.997223,248.834778 182.762680,247.216324 
	C175.988708,245.700912 169.666519,247.065353 164.124969,250.688065 
	C155.608459,256.255646 147.830444,262.809723 141.801544,271.169769 
	C141.334747,271.817047 141.068420,272.608887 140.507263,273.740051 
	C149.302734,279.177612 151.272842,289.493927 157.725677,297.486725 
	C163.006744,291.058380 165.826126,283.338318 171.369522,276.163910 
	C174.092316,285.219421 174.629822,293.333618 176.383453,301.188141 
	C177.977066,308.326080 178.767807,316.074341 188.587234,317.947784 
	C181.888443,321.028961 175.884521,319.021515 171.628662,313.265900 
	C167.706482,307.961609 168.635925,301.088470 165.623779,295.053833 
	C160.885178,299.686249 159.126266,305.749207 155.521530,311.181671 
	C150.877640,305.692413 149.088501,298.918152 144.375458,292.408234 
	C143.293915,298.871643 141.400101,304.072266 143.040131,309.786102 
	C140.744400,310.679016 138.512985,310.549713 136.223877,309.869934 
	C139.669510,302.380585 139.584488,294.332275 140.566788,286.515259 
	C140.941818,283.530975 138.831238,281.325806 136.290192,279.554016 
	C133.089447,281.563995 131.990036,285.153320 129.266632,287.741211 
M268.466553,143.872223 
	C267.082245,154.578873 270.419281,164.364258 274.470032,175.133682 
	C275.136017,168.611160 275.692139,163.164246 276.248291,157.717316 
	C276.704895,157.531006 277.161530,157.344681 277.618134,157.158371 
	C280.959076,165.944412 284.511047,174.533234 294.848572,176.958237 
	C293.765320,173.626694 290.915344,171.223480 289.977295,166.877548 
	C297.250488,169.954559 302.207794,175.449982 309.300262,177.291855 
	C296.074646,164.813171 282.849060,152.334473 269.001556,139.269012 
	C268.761078,141.261658 268.645691,142.217667 268.466553,143.872223 
M132.264893,239.640579 
	C133.504272,244.099121 134.657120,248.584381 136.021698,253.004272 
	C136.648880,255.035675 137.647827,257.819153 140.154312,257.057373 
	C142.746445,256.269562 144.387161,253.518585 143.400314,250.650040 
	C142.713165,248.652664 143.390213,246.741684 142.894806,244.698517 
	C140.569214,243.882523 137.316818,244.318985 136.806839,240.772324 
	C136.443527,238.245819 136.987213,235.427826 134.512421,233.586334 
	C131.534409,235.480103 131.534409,235.480103 132.264893,239.640579 
M201.058212,153.539444 
	C198.171402,156.822464 195.017990,159.909210 193.594772,164.393997 
	C197.534714,160.822586 201.474640,157.251190 205.166519,153.904633 
	C207.288010,155.130844 205.210922,156.532379 206.175919,157.700089 
	C212.404358,147.317551 212.404358,147.317551 220.760162,149.801147 
	C218.975494,147.684250 216.853821,145.885635 214.969330,143.865723 
	C212.692398,141.425156 210.975708,141.620178 208.965469,144.267105 
	C206.655563,147.308578 203.999161,150.086899 201.058212,153.539444 
M231.492676,207.807419 
	C240.221695,204.520233 249.179962,201.993103 258.267487,199.914429 
	C239.161392,201.075974 222.392868,208.197433 207.470444,219.926041 
	C214.931183,215.395096 222.544220,211.137543 231.492676,207.807419 
M131.240036,225.256149 
	C134.139328,224.606644 136.989441,223.586594 140.458557,224.619904 
	C139.040573,221.493881 137.894119,218.966476 136.585556,216.081665 
	C134.644699,218.276855 132.081802,218.732590 130.168732,220.209885 
	C127.893166,221.967102 126.432465,223.968002 131.240036,225.256149 
M142.361984,235.820023 
	C142.665680,237.171234 143.171402,238.280136 145.422913,237.896179 
	C144.264374,235.061920 143.169952,232.384521 142.075546,229.707138 
	C141.828323,229.788757 141.581100,229.870377 141.333878,229.951981 
	C141.648666,231.679916 141.963470,233.407852 142.361984,235.820023 
z"/>
<path fill="#000000" opacity="1.000000" stroke="none" 
	d="
M343.314606,276.372925 
	C339.434143,288.197540 335.684235,299.673004 331.544525,312.341248 
	C328.102264,305.001221 325.087585,298.573029 321.742188,291.439575 
	C318.349609,297.035034 316.636444,302.245148 314.542877,307.268829 
	C312.705933,311.676697 310.254059,315.560089 306.040527,318.028076 
	C304.190979,319.111420 302.208832,320.013000 299.407501,318.376892 
	C302.703400,316.270538 305.803680,314.389343 307.762054,311.230408 
	C309.448914,308.509460 310.083160,305.942078 308.766815,302.781586 
	C306.531158,297.413727 304.638977,291.902069 302.634094,286.439209 
	C301.557983,283.507019 300.582733,280.530853 296.903687,278.301941 
	C302.072418,277.317963 306.081818,277.542328 310.130737,277.997986 
	C309.306702,283.808655 312.508972,288.187866 314.113770,293.753357 
	C319.460205,288.968079 318.909210,281.778717 323.597626,277.189209 
	C327.462738,282.336578 328.652954,288.595520 332.377441,294.240967 
	C335.336090,288.888947 336.135468,283.482941 337.783936,278.390656 
	C339.558167,272.909943 342.456879,268.463959 348.185974,266.478210 
	C350.064026,265.827301 351.969574,265.173615 355.147034,266.852936 
	C349.356537,268.365997 345.464294,271.188873 343.314606,276.372925 
z"/>
<path fill="#000000" opacity="1.000000" stroke="none" 
	d="
M361.898651,312.788177 
	C358.544159,316.421967 355.641357,320.235962 349.976715,318.980286 
	C350.562683,316.972504 352.277100,316.796112 353.437531,315.991150 
	C359.229889,311.973297 360.685364,307.623444 358.280792,301.003601 
	C356.404785,295.838928 354.429901,290.709869 352.584351,285.534546 
	C351.633911,282.869141 350.388702,280.424805 347.865723,278.611481 
	C350.229767,276.997375 352.430023,277.827423 354.492035,277.686523 
	C356.457672,277.552185 358.439697,277.657562 360.713470,277.657562 
	C359.515076,283.714111 362.598053,288.165314 364.538849,293.689056 
	C369.516693,288.889404 369.403412,281.994904 373.672150,277.180359 
	C377.784485,282.274200 378.795013,288.636261 382.477509,293.979492 
	C384.757965,292.156921 384.705444,289.501984 385.470520,287.326935 
	C386.848419,283.410004 387.664368,279.280640 389.217468,275.443390 
	C391.944214,268.706207 397.549927,265.397949 404.767517,266.365234 
	C388.997681,273.050964 390.957916,288.940216 385.487671,300.815277 
	C384.005951,304.031921 383.449463,307.674774 382.206787,312.040771 
	C377.464203,305.511353 376.058258,298.190491 371.683838,291.656647 
	C368.313812,299.001404 365.217621,305.749268 361.898651,312.788177 
z"/>
<path fill="#000000" opacity="1.000000" stroke="none" 
	d="
M188.625153,302.519897 
	C190.936966,294.514343 190.321365,286.471405 188.896103,277.872772 
	C193.826584,277.604736 199.247452,277.042572 204.567383,278.302551 
	C209.956573,279.578857 211.860031,282.317749 211.195496,287.682983 
	C210.882538,290.209747 211.136276,291.707031 213.322830,293.531433 
	C218.881241,298.169220 217.584854,306.003357 210.972931,308.989716 
	C204.982025,311.695618 198.741379,312.012207 192.509171,309.781097 
	C186.613022,307.670288 183.469635,302.302429 184.400665,295.941803 
	C187.257507,297.274628 185.863724,301.084625 188.625153,302.519897 
M198.344894,287.830078 
	C198.349945,293.139771 198.235748,298.453125 198.399734,303.757904 
	C198.519531,307.633484 200.722748,308.650543 203.969711,306.569763 
	C209.015350,303.336243 208.729752,297.055420 203.481979,294.070648 
	C202.417206,293.465027 200.776962,293.776550 200.261368,292.251068 
	C203.940109,285.969116 203.790878,283.893646 199.520767,281.844116 
	C197.818253,283.233429 198.545013,285.194763 198.344894,287.830078 
z"/>
<path fill="#000000" opacity="1.000000" stroke="none" 
	d="
M268.484894,277.664246 
	C272.571411,277.771637 276.296143,277.468292 279.864594,278.078735 
	C285.600525,279.059967 287.996490,282.306335 287.151459,287.939789 
	C286.744629,290.652252 287.454163,292.001129 289.463287,293.730804 
	C294.301819,297.896301 293.822540,305.074097 288.412567,308.125885 
	C281.329285,312.121552 273.763306,312.480103 266.426483,308.759583 
	C261.448822,306.235413 259.302368,300.948303 260.702820,295.911469 
	C263.349030,297.432861 261.623810,301.766205 265.728729,302.751495 
	C265.783630,294.496796 267.151428,286.392609 264.635529,278.060913 
	C265.393463,277.254120 266.794891,277.814728 268.484894,277.664246 
M276.418793,291.322815 
	C280.097473,286.243225 279.774445,283.503143 274.326508,281.502777 
	C274.326508,288.723053 274.260742,295.620941 274.371124,302.516022 
	C274.399994,304.319641 273.418488,306.863525 276.274231,307.492401 
	C278.644775,308.014435 280.424194,306.599335 281.818970,304.837036 
	C284.999146,300.818756 283.920197,296.572327 279.412018,294.005402 
	C278.299408,293.371918 276.084656,294.241943 276.418793,291.322815 
z"/>
<path fill="#000000" opacity="1.000000" stroke="none" 
	d="
M246.883514,291.210938 
	C249.498230,297.189545 251.786224,302.901031 254.445831,308.433899 
	C256.958374,313.660889 260.196716,318.276764 267.537262,317.983917 
	C265.418579,321.235291 262.662231,320.756104 260.281860,320.549469 
	C251.443130,319.782257 247.182449,313.573151 243.942764,306.300476 
	C242.779175,303.688354 241.863541,301.268982 238.090378,301.287689 
	C231.525299,301.320282 229.698410,302.948792 229.866577,309.887177 
	C227.459427,310.652985 225.029282,310.455353 222.101776,309.975586 
	C227.469376,303.860107 229.331894,296.281830 232.655762,289.423889 
	C236.175888,282.161072 234.547913,278.878326 226.734528,276.888794 
	C230.893616,273.392670 236.385056,274.028107 240.319595,278.545898 
	C243.437622,282.126099 244.997665,286.544647 246.883514,291.210938 
M238.344437,291.885925 
	C237.892151,291.056519 237.357437,289.670441 236.488129,291.370636 
	C235.408829,293.481537 233.715698,295.477020 234.180893,298.244080 
	C236.194992,298.686981 238.082169,299.102081 239.801437,297.741882 
	C240.269501,295.691986 238.928329,294.186218 238.344437,291.885925 
z"/>
<path fill="#000000" opacity="1.000000" stroke="none" 
	d="
M84.335541,309.299927 
	C96.329948,312.491302 107.684998,317.757538 120.850494,314.538605 
	C117.615593,319.972717 111.693642,322.122467 105.189468,320.978577 
	C99.077385,319.903687 93.458473,317.409882 87.774155,315.067383 
	C83.212082,313.187286 78.567215,311.508148 73.269867,309.475403 
	C78.765404,299.846985 84.068649,290.555450 89.699265,280.690369 
	C83.988068,280.651886 78.669968,278.457977 75.017700,284.248077 
	C72.665352,278.395538 73.545456,277.292023 78.956940,277.504028 
	C85.736702,277.769623 92.534775,277.567932 99.293503,277.567932 
	C100.042450,279.922668 98.548302,281.295471 97.706078,282.804352 
	C93.816750,289.772339 89.787521,296.662659 85.935036,303.650574 
	C85.019669,305.310913 83.397491,306.842407 84.335541,309.299927 
z"/>
<path fill="#000000" opacity="1.000000" stroke="none" 
	d="
M427.044189,304.195679 
	C427.884491,303.178864 428.505127,302.442596 429.233582,301.578369 
	C430.894928,307.611145 429.088837,310.307404 423.581055,310.329407 
	C416.607056,310.357239 409.632843,310.336151 402.769501,310.336151 
	C404.356201,299.436401 404.278320,288.925049 402.864227,277.822388 
	C407.894287,277.822388 413.588531,277.822388 419.634979,277.822388 
	C420.761261,279.416595 420.324341,281.523163 419.967926,283.960632 
	C417.398804,283.433716 415.531342,278.455292 413.110168,281.582672 
	C411.095184,284.185394 410.997437,289.050842 413.214844,291.439362 
	C416.139618,294.589813 419.931427,292.177490 423.268341,289.661713 
	C424.724945,292.842377 424.108551,295.814911 423.841125,298.736267 
	C421.957123,299.195984 421.794067,297.630402 421.048920,296.883545 
	C418.976044,294.805786 416.423035,295.005768 414.043976,295.757568 
	C411.811188,296.463104 412.184937,298.773499 412.327026,300.505280 
	C412.517975,302.832092 410.906006,306.406677 413.876801,307.183258 
	C418.325165,308.346100 423.202789,308.629730 427.044189,304.195679 
z"/>
<path fill="#000000" opacity="1.000000" stroke="none" 
	d="
M145.692596,330.071838 
	C148.611252,329.646118 151.246765,329.386963 153.831085,330.135437 
	C152.831589,338.109863 152.714706,345.958893 153.781113,353.906219 
	C151.265045,354.638977 148.829346,354.442871 146.209122,354.012054 
	C145.778870,350.437286 148.709702,346.239777 145.054291,343.479645 
	C143.330048,342.177673 139.978989,342.123596 138.449493,343.777313 
	C135.846573,346.591583 137.544098,350.337494 137.867661,353.897400 
	C135.405334,354.768768 132.949280,354.187744 130.216095,354.285583 
	C130.805222,346.162994 131.345291,338.301727 129.919693,330.201111 
	C132.433472,329.135773 135.161057,329.874817 137.676453,329.826874 
	C138.640228,331.418427 137.339447,332.330353 137.386551,333.446869 
	C137.474014,335.520142 136.299728,338.109924 138.592712,339.401184 
	C140.627930,340.547272 143.349854,340.591705 145.334885,339.394440 
	C147.745224,337.940674 146.595627,335.200073 146.419327,332.971344 
	C146.346436,332.049866 145.760498,331.169006 145.692596,330.071838 
z"/>
<path fill="#000000" opacity="1.000000" stroke="none" 
	d="
M311.624939,339.396942 
	C311.508453,335.762512 312.470306,332.323334 309.255432,329.443054 
	C312.837097,328.155212 315.711914,328.887451 318.723602,328.738983 
	C315.860992,337.003082 318.263397,345.190796 316.819397,354.183167 
	C310.732635,349.931824 306.559601,344.355560 300.796417,339.640350 
	C300.214569,344.814941 299.638580,349.288116 301.631409,353.828003 
	C299.204803,354.894562 296.768799,354.141418 294.050568,354.283081 
	C295.318298,345.966278 294.166138,337.910309 294.971344,329.042664 
	C301.152405,333.115356 305.207001,338.619324 310.234741,342.741669 
	C312.144012,342.177795 311.355225,340.770416 311.624939,339.396942 
z"/>
<path fill="#000000" opacity="1.000000" stroke="none" 
	d="
M115.695297,285.412903 
	C115.563042,283.202454 116.071014,281.085358 113.581902,280.503479 
	C112.072105,280.150513 110.615326,280.398682 109.379898,281.491791 
	C107.203537,283.417450 110.176941,284.990570 109.799248,287.040192 
	C106.806961,287.237457 105.246330,285.621216 105.172592,283.052612 
	C105.083229,279.939667 107.205215,278.018341 110.149399,277.835724 
	C114.755867,277.550018 119.393089,277.760010 124.236481,277.760010 
	C124.460388,288.687103 123.488197,299.233368 124.781006,310.084473 
	C121.935410,310.784485 118.211205,310.370850 114.413216,310.132477 
	C116.828835,301.966797 115.225975,293.860840 115.695297,285.412903 
z"/>
<path fill="#000000" opacity="1.000000" stroke="none" 
	d="
M214.670807,343.886597 
	C214.434128,339.144836 215.353592,334.795288 213.619049,330.386200 
	C216.409882,329.197449 219.090714,329.710144 222.095627,330.016113 
	C221.322815,333.319946 220.490036,336.360229 221.673126,339.847992 
	C224.581329,338.409119 226.375504,335.777252 227.344360,333.304077 
	C228.923218,329.273743 231.398224,329.195343 235.294724,330.212036 
	C233.116745,332.494141 231.215210,334.596222 229.193726,336.575836 
	C226.860748,338.860535 226.880600,341.048492 228.897919,343.562927 
	C231.465134,346.762726 233.840195,350.116730 236.475586,353.641632 
	C228.304169,356.543457 225.962677,349.324921 221.626602,345.282745 
	C220.595947,348.441193 221.247482,351.121613 221.929901,353.885590 
	C219.099976,354.563202 216.544174,354.723145 213.721848,353.710388 
	C214.947189,350.616974 214.615891,347.473022 214.670807,343.886597 
z"/>
<path fill="#000000" opacity="1.000000" stroke="none" 
	d="
M355.237701,351.690582 
	C360.839264,350.540985 361.517670,349.114380 359.961914,342.508850 
	C360.949219,341.263519 362.369537,341.761139 363.616760,341.708466 
	C364.926727,341.653198 366.245422,341.805298 367.559662,341.866760 
	C367.144073,350.992126 365.492035,353.317047 358.872314,354.243195 
	C350.718323,355.383942 344.898987,352.556976 342.889709,346.479004 
	C340.698181,339.849762 343.003693,332.917755 348.633881,330.047058 
	C353.161072,327.738770 358.032074,328.089111 362.726318,329.431335 
	C366.318115,330.458344 365.283203,333.419769 364.922668,336.704254 
	C361.354095,333.328278 358.250763,329.265961 353.205627,332.239166 
	C349.226379,334.584167 348.989319,338.747650 349.193817,342.841461 
	C349.392883,346.825806 350.156433,350.537170 355.237701,351.690582 
z"/>
<path fill="#000000" opacity="1.000000" stroke="none" 
	d="
M187.199158,333.887817 
	C187.207169,340.732239 186.359940,347.198730 187.869400,353.781708 
	C185.393845,354.845428 182.820221,354.184692 180.132187,354.240936 
	C180.648056,346.088745 181.510788,338.279266 179.610916,330.144836 
	C182.100723,329.243713 184.926849,329.691315 187.646439,329.964020 
	C188.456985,331.447418 187.265778,332.369751 187.199158,333.887817 
z"/>
<path fill="#000000" opacity="1.000000" stroke="none" 
	d="
M261.720520,354.290344 
	C259.449280,353.949524 260.312347,352.773071 260.388153,351.651855 
	C260.866150,344.581085 261.298187,337.500244 259.902893,330.194672 
	C262.437653,329.226318 265.145294,329.696442 267.937012,329.949646 
	C266.852631,337.997864 267.008270,345.813843 267.713379,353.798370 
	C266.056763,354.846893 264.026825,354.163422 261.720520,354.290344 
z"/>
<path fill="#000000" opacity="1.000000" stroke="none" 
	d="
M228.949387,367.469238 
	C227.413483,369.617676 229.164658,372.530853 226.499710,374.113831 
	C223.290939,372.649170 225.593628,369.190918 223.856094,367.029510 
	C222.452713,367.199524 220.910645,367.386353 219.217194,367.591492 
	C219.802338,369.717316 222.163177,371.636536 219.857742,373.920319 
	C217.809006,375.949738 215.676926,375.242126 213.433792,374.256836 
	C212.749130,373.956146 211.822388,374.178589 211.007980,374.205627 
	C204.339081,374.426941 204.280396,374.212769 204.506516,367.795807 
	C204.625046,364.431854 206.271866,364.398132 208.678192,364.984436 
	C209.464066,369.615753 209.439041,370.344360 208.162399,372.320953 
	C211.361969,371.391266 214.185959,371.666412 216.838425,373.187469 
	C217.011505,372.470978 217.227768,372.113098 217.133499,371.881653 
	C216.321518,369.888000 212.878815,368.893250 214.449921,366.089630 
	C215.788055,363.701660 218.298340,365.074524 220.365311,365.066254 
	C223.013184,365.055695 225.661026,364.744293 228.307465,364.763092 
	C230.395096,364.777924 230.540878,365.782318 228.949387,367.469238 
z"/>
<path fill="#000000" opacity="1.000000" stroke="none" 
	d="
M245.005829,370.854156 
	C244.959946,367.406158 246.493652,365.744415 249.537842,365.837708 
	C251.624725,365.901672 252.874908,367.245789 253.191376,369.287872 
	C253.497269,371.261719 252.955292,373.140533 251.028015,373.878723 
	C248.379227,374.893219 246.088165,374.332031 245.005829,370.854156 
z"/>
<path fill="#000000" opacity="1.000000" stroke="none" 
	d="
M268.960999,367.923401 
	C268.517334,371.422333 271.213135,376.257019 264.501312,376.364868 
	C264.537079,374.579346 266.138916,373.001526 264.136414,371.416077 
	C262.939941,370.468842 263.239929,368.428589 264.440613,367.454865 
	C265.747040,366.395386 267.529175,365.379578 268.960999,367.923401 
z"/>
<path fill="#000000" opacity="1.000000" stroke="none" 
	d="
M237.455444,368.208740 
	C236.952316,365.207550 239.027573,365.767487 240.537354,365.911865 
	C241.966919,366.048584 243.020889,367.057281 243.008926,368.561554 
	C242.996124,370.174530 242.434937,371.769714 243.040390,373.239288 
	C241.126114,374.766785 239.405060,374.441193 238.088837,374.019592 
	C235.584747,371.990814 241.633011,370.229889 237.455444,368.208740 
z"/>
<path fill="#000000" opacity="1.000000" stroke="none" 
	d="
M255.315262,372.734955 
	C257.202423,370.552399 258.277100,368.758087 254.768402,367.503937 
	C256.333679,365.207825 258.172058,365.328186 259.719574,366.437286 
	C262.532318,368.453125 259.867554,371.307831 260.924072,373.784607 
	C258.654510,374.229980 256.766479,375.157898 255.315262,372.734955 
z"/>
</svg>